<svg width="45" height="50" viewBox="0 0 45 50" fill="none" xmlns="http://www.w3.org/2000/svg">
<path d="M43.7908 28.8062L43.2154 26.7905L33.0866 29.616L32.6288 29.7438L24.6178 25.1699L32.623 20.6006L33.3673 20.7872L43.5672 23.3488L44.0891 21.3182L35.251 19.0997L45 13.5341L43.9411 11.7211L34.2794 17.2361L36.4788 8.67216L34.4262 8.15614L31.8355 18.2428L31.719 18.6977L23.4098 23.441V13.9545L23.7511 13.6274L31.2892 6.36619L29.8121 4.8665L23.4098 11.0311V0H21.292V11.1313L14.9305 4.67184L13.4126 6.13352L20.7561 13.5882L21.292 14.1319V23.2717L13.281 18.6977L13.1645 18.2428L10.5749 8.15614L8.52123 8.67216L10.7206 17.2361L1.05889 11.7211L0 13.5341L9.74903 19.0997L0.91095 21.3182L1.43282 23.3488L11.6327 20.7872L12.3782 20.6006L20.3822 25.1699L12.3712 29.7438L11.9134 29.616L1.78462 26.7905L1.21033 28.8062L9.81077 31.2055L0.149107 36.7205L1.208 38.5346L10.957 32.969L8.48162 41.6457L10.5202 42.2147L13.3765 32.1995L13.5862 31.4681L21.292 27.0693V35.8681L20.7561 36.4118L13.4126 43.8665L14.9305 45.327L21.292 38.8687V50H23.4098V38.9689L29.8121 45.1335L31.2892 43.6338L23.7511 36.3738L23.4098 36.0455V26.8988L31.415 31.4681L31.6235 32.1995L34.481 42.2147L36.5195 41.6457L34.043 32.969L43.792 38.5346L44.8509 36.7205L35.1892 31.2055L43.7908 28.8062Z" fill="#ABE9F4"/>
</svg>
